<?xml version="1.0" standalone="no"?>
<!DOCTYPE svg PUBLIC "-//W3C//DTD SVG 20010904//EN"
 "http://www.w3.org/TR/2001/REC-SVG-20010904/DTD/svg10.dtd">
<svg version="1.0" xmlns="http://www.w3.org/2000/svg"
 width="640.000000pt" height="640.000000pt" viewBox="0 0 640.000000 640.000000"
 preserveAspectRatio="xMidYMid meet">
<metadata>
Created by potrace 1.11, written by Peter Selinger 2001-2013
</metadata>
<g transform="translate(0.000000,640.000000) scale(0.100000,-0.100000)"
fill="#000000" stroke="none">
<path d="M2063 4345 c-623 -623 -1133 -1137 -1133 -1142 0 -11 2262 -2273
2273 -2273 5 0 520 511 1144 1136 l1136 1136 -1139 1139 c-626 626 -1141 1139
-1144 1138 -3 0 -515 -510 -1137 -1134z m2762 -1604 c-253 -254 -462 -461
-465 -461 -5 0 -106 89 -210 184 -86 78 -242 217 -410 366 -58 51 -112 100
-121 109 -9 9 -31 29 -50 45 -77 67 -196 174 -246 221 l-52 50 -6 985 -5 985
1012 -1012 1012 -1012 -459 -460z m-1700 1487 l5 -965 -137 -129 c-76 -71
-171 -161 -213 -200 -41 -39 -87 -82 -101 -95 -15 -13 -84 -79 -155 -145 -71
-67 -148 -139 -170 -160 -23 -22 -96 -91 -164 -154 -67 -63 -125 -114 -129
-113 -3 1 -216 213 -473 469 l-468 467 998 998 c548 549 998 996 1000 995 1
-2 5 -437 7 -968z m214 -1227 c41 -36 84 -75 95 -86 12 -11 60 -54 106 -95 47
-41 90 -79 96 -85 16 -14 150 -134 172 -154 27 -23 159 -141 192 -171 15 -14
65 -59 111 -100 46 -41 98 -88 116 -105 l33 -30 -528 -527 -528 -528 -514 514
c-283 283 -516 518 -517 523 -3 9 24 36 222 222 45 42 119 112 166 156 46 44
152 143 234 220 82 77 183 172 225 211 41 39 97 92 125 117 l49 45 36 -30 c19
-17 68 -61 109 -97z"/>
<path d="M3828 3818 c-2 -7 -3 -164 -3 -348 l1 -335 63 -3 c36 -2 67 1 70 7 3
5 6 113 5 240 -1 182 2 227 11 213 7 -9 69 -117 139 -239 l128 -223 74 0 74 0
-1 350 0 350 -69 0 -70 0 0 -237 c0 -260 3 -252 -55 -148 -15 28 -70 125 -122
218 l-95 167 -73 0 c-50 0 -74 -4 -77 -12z"/>
<path d="M2010 3480 l0 -350 75 0 75 0 1 128 c1 70 0 141 -1 157 l-1 30 123
-2 c68 -1 128 -2 134 -3 7 0 10 -48 9 -145 0 -80 2 -150 5 -156 4 -6 36 -9 75
-7 l68 3 -1 315 c-1 173 -1 330 -1 348 l-1 33 -72 -3 -72 -3 -1 -130 0 -130
-130 0 -130 0 -5 29 c-3 16 -3 69 0 118 3 49 1 96 -3 104 -6 10 -28 14 -77 14
l-70 0 0 -350z"/>
<path d="M3097 2408 c-55 -149 -227 -640 -227 -648 0 -6 32 -10 74 -10 l75 0
22 69 c14 43 29 71 38 73 9 2 66 3 126 3 l110 0 25 -72 25 -73 77 0 c43 0 78
3 78 7 0 8 -79 235 -110 318 -10 28 -45 123 -76 213 l-57 162 -82 0 -82 0 -16
-42z m144 -276 c18 -56 29 -105 26 -109 -8 -7 -136 -10 -148 -3 -5 3 9 60 31
125 22 66 40 122 40 125 2 10 20 -37 51 -138z"/>
</g>
</svg>
